PathFileType	4	(x/y/z)	S09_M20_T02
DataRate	CameraRate	NumFrames	NumMarkers	Units	OrigDataRate	OrigDataStartFrame	OrigNumFrames
240	240	8	51	mm	240	276	551
Frame#	Time	Sternum			R.Acromium			L.Acromium			Top.Head			R.ASIS			L.ASIS			R.PSIS			L.PSIS			R.Great.Tro			L.Great.Tro			R.Iliac.Crest			L.Iliac.Crest			V.Sacral			R.Thigh.Upper.Post			R.Thigh.Lower.Ant			R.Thigh.Lower.Post			R.Thigh.Upper.Ant			R.Knee.Lat			R.Knee.Med			R.Shank.Upper.Post			R.Shank.Lower.Ant			R.Shank.Lower.Post			R.Shank.Upper.Ant			R.Ankle.Lat			R.Ankle.Med			R.Heel.Upper			R.Heel.Med			R.Heel.Lat			R.Toe.Lat			R.Toe.Med			R.Toe.Tip			L.Thigh.Upper.Post			L.Thigh.Lower.Ant			L.Thigh.Lower.Post			L.Thigh.Upper.Ant			L.Knee.Lat			L.Knee.Med			L.Shank.Upper.Post			L.Shank.Lower.Ant			L.Shank.Lower.Post			L.Shank.Upper.Ant			L.Ankle.Lat			L.Ankle.Med			L.Heel.Upper			L.Heel.Med			L.Heel.Lat			L.Toe.Lat			L.Toe.Med			L.Toe.Tip			Cervical.Spine			Back			
		X1	Y1	Z1	X2	Y2	Z2	X3	Y3	Z3	X4	Y4	Z4	X5	Y5	Z5	X6	Y6	Z6	X7	Y7	Z7	X8	Y8	Z8	X9	Y9	Z9	X10	Y10	Z10	X11	Y11	Z11	X12	Y12	Z12	X13	Y13	Z13	X14	Y14	Z14	X15	Y15	Z15	X16	Y16	Z16	X17	Y17	Z17	X18	Y18	Z18	X19	Y19	Z19	X20	Y20	Z20	X21	Y21	Z21	X22	Y22	Z22	X23	Y23	Z23	X24	Y24	Z24	X25	Y25	Z25	X26	Y26	Z26	X27	Y27	Z27	X28	Y28	Z28	X29	Y29	Z29	X30	Y30	Z30	X31	Y31	Z31	X32	Y32	Z32	X33	Y33	Z33	X34	Y34	Z34	X35	Y35	Z35	X36	Y36	Z36	X37	Y37	Z37	X38	Y38	Z38	X39	Y39	Z39	X40	Y40	Z40	X41	Y41	Z41	X42	Y42	Z42	X43	Y43	Z43	X44	Y44	Z44	X45	Y45	Z45	X46	Y46	Z46	X47	Y47	Z47	X48	Y48	Z48	X49	Y49	Z49	X50	Y50	Z50	X51	Y51	Z51	

276	1.1458	527.91	1201.6	355.2	388.92	1450.5	498.38	398.06	1443.3	189.65	471.22	1737.1	333.02	493.53	1032.4	452.79	487.64	1035	205.17	269.96	1052.1	377.61	275.09	1050.4	287.72	414.5	944.29	522.8	421.92	942.39	134.5	399.71	1109.3	500.8	375.43	1124.1	173.43	254.1	1015.9	329.42	395.12	691.95	483.45	457.02	589.85	433.01	381.21	603.67	452.13	463.36	674.83	466.85	425.26	517.42	422.02	409.94	516.96	300.83	331.51	350.23	423.17	390.99	284.32	403.55	318.64	275.93	408.51	396.75	356.44	420.43	322.87	93.289	376.99	347.15	104.18	290.31	255.64	81.491	323.25	265.4	49.267	294.72	256.11	50.916	359.1	414.8	40.534	414.16	464.74	43.952	307.74	511.69	57.511	355.19	444.75	676.93	166.04	550.73	609.9	150.82	487.98	596.59	177.39	509.29	687.88	135.46	550.64	531.62	159.16	588.95	539.88	291.36	479.53	418.34	151.86	521.83	316.03	153.89	463.17	343.08	156.03	538.24	392.22	150.63	437.56	141.07	170.78	465.24	132.68	259.84	367.53	110.57	230.48	380.49	85.188	262.04	361.72	82.301	203.2	523.76	52.105	129.36	574.11	53.692	231.45	617.61	64.661	167.5	319.44	1493.8	348.37	268.19	1227	332.99
277	1.15	532.45	1201.2	355.46	393.58	1450.3	498.44	402.79	1442.8	189.63	476.11	1736.7	332.86	497.82	1032	453.12	492.55	1034.8	205.46	274.43	1052.1	377.39	279.78	1050.3	287.51	418.26	943.97	522.89	427.12	942.26	134.6	403.99	1109	500.95	380.33	1123.8	173.53	258.62	1015.9	329.17	397.66	691.92	483.44	459.11	589.45	433.23	383.35	603.7	452.13	465.81	674.41	466.99	426.92	517.13	422.15	411.87	516.71	300.98	332.49	350.33	423.15	391.69	284.21	403.58	319.37	276.08	408.47	397.83	356.3	420.54	323	93.402	376.91	347.34	104.2	290.21	255.73	81.588	323.15	265.49	49.301	294.69	256.17	51.055	359.04	414.83	40.509	414.14	464.77	43.828	307.75	511.77	57.319	355.22	450.76	676.83	166.59	557.12	610.18	151.56	494.31	596.68	178.17	515.22	687.95	136.05	557.53	531.94	160.06	595.46	540.59	292.35	488.88	417.05	152.38	533.49	315.73	154.17	474.24	341.42	156.31	548.14	392.29	151.14	453.41	138.64	170.41	481.31	130.64	259.45	384.08	106.43	230.02	397.65	81.304	261.55	378.92	78.053	202.74	541.6	51.681	128.8	591.94	54.222	230.89	635.18	66.277	166.91	324.16	1493.6	348.33	272.75	1226.7	333.05
278	1.1542	537	1200.7	355.72	398.24	1450	498.49	407.53	1442.3	189.6	481	1736.3	332.69	502.12	1031.7	453.43	497.49	1034.6	205.74	278.9	1052	377.15	284.49	1050.1	287.28	422.01	943.63	522.98	432.3	942.1	134.7	408.27	1108.7	501.09	385.24	1123.6	173.6	263.16	1015.8	328.9	400.22	691.87	483.42	461.22	589.05	433.44	385.51	603.71	452.12	468.29	673.98	467.14	428.61	516.83	422.28	413.83	516.44	301.12	333.49	350.43	423.13	392.42	284.1	403.6	320.11	276.24	408.42	398.94	356.16	420.65	323.12	93.521	376.83	347.53	104.22	290.1	255.81	81.681	323.06	265.59	49.335	294.66	256.23	51.192	358.98	414.86	40.486	414.12	464.8	43.703	307.76	511.84	57.129	355.26	456.7	676.68	167.16	563.42	610.4	152.29	500.57	596.72	178.96	521.07	687.96	136.64	564.36	532.21	160.96	601.89	541.23	293.35	498.26	415.74	152.88	545.17	315.47	154.49	485.35	339.79	156.57	558.04	392.36	151.65	469.32	136.35	170.08	497.42	128.77	259.11	400.72	102.49	229.61	414.89	77.641	261.13	396.2	74.006	202.34	559.43	51.408	128.32	609.75	54.936	230.42	652.69	68.029	166.4	328.89	1493.3	348.28	277.32	1226.5	333.1
279	1.1583	541.55	1200.2	355.97	402.91	1449.7	498.53	412.28	1441.8	189.57	485.89	1735.9	332.52	506.43	1031.3	453.74	502.43	1034.4	206.01	283.39	1051.9	376.88	289.21	1049.9	287.03	425.77	943.28	523.06	437.48	941.91	134.79	412.56	1108.4	501.21	390.16	1123.3	173.66	267.72	1015.7	328.61	402.81	691.81	483.4	463.37	588.63	433.66	387.7	603.7	452.1	470.79	673.53	467.28	430.33	516.53	422.4	415.82	516.16	301.25	334.52	350.54	423.1	393.17	283.98	403.62	320.88	276.39	408.38	400.08	356	420.76	323.24	93.644	376.75	347.73	104.25	290	255.9	81.771	322.97	265.67	49.371	294.62	256.29	51.327	358.92	414.88	40.467	414.1	464.83	43.576	307.77	511.91	56.943	355.29	462.57	676.49	167.74	569.64	610.57	153.01	506.74	596.7	179.75	526.86	687.91	137.23	571.14	532.43	161.86	608.22	541.81	294.37	507.67	414.42	153.33	556.85	315.25	154.85	496.49	338.18	156.83	567.94	392.43	152.18	485.27	134.21	169.8	513.56	127.09	258.82	417.44	98.746	229.24	432.21	74.206	260.76	413.55	70.167	201.99	577.24	51.294	127.92	627.5	55.843	230.03	670.15	69.926	165.97	333.63	1493	348.22	281.89	1226.2	333.14
280	1.1625	546.11	1199.7	356.2	407.58	1449.3	498.57	417.04	1441.2	189.53	490.79	1735.5	332.33	510.74	1030.9	454.05	507.4	1034.1	206.28	287.9	1051.8	376.59	293.96	1049.7	286.76	429.54	942.93	523.14	442.64	941.67	134.88	416.86	1108	501.33	395.1	1123	173.71	272.29	1015.6	328.29	405.41	691.74	483.38	465.54	588.2	433.87	389.92	603.68	452.07	473.31	673.07	467.43	432.09	516.21	422.52	417.86	515.87	301.39	335.57	350.65	423.07	393.95	283.85	403.65	321.67	276.55	408.33	401.25	355.84	420.87	323.36	93.774	376.68	347.93	104.28	289.9	255.98	81.858	322.89	265.76	49.407	294.59	256.35	51.458	358.86	414.9	40.452	414.09	464.87	43.448	307.78	511.97	56.758	355.33	468.38	676.24	168.32	575.77	610.67	153.73	512.84	596.62	180.55	532.58	687.8	137.81	577.86	532.6	162.75	614.46	542.32	295.4	517.11	413.1	153.77	568.52	315.09	155.23	507.66	336.61	157.08	577.82	392.51	152.73	501.27	132.24	169.57	529.71	125.59	258.57	434.23	95.215	228.93	449.57	71.004	260.45	430.97	66.544	201.7	595.03	51.345	127.6	645.21	56.949	229.73	687.53	71.977	165.62	338.37	1492.7	348.16	286.47	1225.9	333.16
281	1.1667	550.67	1199.2	356.43	412.27	1448.9	498.6	421.82	1440.6	189.48	495.69	1735	332.14	515.06	1030.4	454.35	512.38	1033.8	206.54	292.41	1051.7	376.28	298.72	1049.5	286.47	433.31	942.57	523.21	447.8	941.4	134.97	421.17	1107.7	501.43	400.06	1122.7	173.74	276.88	1015.4	327.96	408.04	691.64	483.35	467.75	587.77	434.09	392.17	603.65	452.04	475.85	672.59	467.59	433.87	515.89	422.64	419.94	515.57	301.52	336.65	350.76	423.05	394.75	283.72	403.67	322.47	276.71	408.27	402.43	355.67	420.96	323.47	93.911	376.62	348.14	104.31	289.8	256.06	81.941	322.81	265.84	49.446	294.55	256.4	51.586	358.81	414.92	40.441	414.09	464.91	43.319	307.79	512.04	56.574	355.36	474.11	675.94	168.91	581.82	610.71	154.43	518.86	596.49	181.36	538.25	687.64	138.39	584.53	532.73	163.62	620.62	542.76	296.44	526.57	411.78	154.17	580.19	314.98	155.64	518.86	335.09	157.33	587.69	392.61	153.28	517.28	130.44	169.39	545.87	124.29	258.38	451.07	91.899	228.67	466.97	68.038	260.2	448.45	63.14	201.47	612.79	51.569	127.36	662.85	58.259	229.52	704.85	74.189	165.36	343.13	1492.4	348.09	291.06	1225.6	333.18
282	1.1708	555.24	1198.6	356.66	416.96	1448.5	498.63	426.59	1439.9	189.43	500.6	1734.5	331.94	519.39	1030	454.65	517.38	1033.5	206.8	296.95	1051.6	375.94	303.49	1049.2	286.16	437.1	942.2	523.28	452.95	941.09	135.06	425.48	1107.3	501.53	405.04	1122.3	173.76	281.49	1015.3	327.61	410.68	691.53	483.33	470	587.33	434.31	394.46	603.6	452	478.42	672.09	467.75	435.7	515.56	422.75	422.07	515.26	301.64	337.75	350.88	423.02	395.58	283.58	403.69	323.3	276.88	408.22	403.63	355.5	421.05	323.58	94.054	376.56	348.35	104.35	289.7	256.15	82.022	322.73	265.91	49.486	294.52	256.46	51.712	358.75	414.94	40.435	414.09	464.95	43.19	307.8	512.11	56.39	355.41	479.79	675.59	169.51	587.8	610.69	155.12	524.8	596.31	182.16	543.86	687.42	138.95	591.15	532.81	164.49	626.69	543.13	297.49	536.04	410.47	154.56	591.83	314.94	156.07	530.07	333.61	157.58	597.54	392.72	153.84	533.31	128.81	169.25	562.02	123.19	258.24	467.95	88.801	228.45	484.4	65.314	260.02	465.96	59.961	201.3	630.5	51.972	127.2	680.41	59.78	229.39	722.07	76.568	165.18	347.89	1492	348.02	295.66	1225.2	333.17
283	1.175	559.82	1198	356.87	421.65	1448	498.64	431.38	1439.3	189.37	505.51	1733.9	331.74	523.72	1029.6	454.95	522.41	1033.1	207.06	301.49	1051.4	375.59	308.29	1048.9	285.84	440.9	941.83	523.34	458.1	940.75	135.15	429.81	1106.9	501.61	410.04	1121.9	173.76	286.13	1015	327.24	413.35	691.41	483.31	472.28	586.87	434.53	396.77	603.53	451.95	481.02	671.59	467.91	437.56	515.22	422.86	424.25	514.94	301.77	338.88	350.99	422.99	396.44	283.43	403.72	324.15	277.05	408.17	404.85	355.31	421.12	323.68	94.205	376.51	348.57	104.4	289.6	256.23	82.102	322.65	265.98	49.528	294.48	256.52	51.836	358.69	414.95	40.432	414.1	465.01	43.062	307.82	512.19	56.205	355.45	485.4	675.19	170.1	593.71	610.61	155.81	530.68	596.06	182.95	549.43	687.14	139.49	597.73	532.85	165.33	632.68	543.42	298.54	545.53	409.17	154.94	603.44	314.96	156.53	541.28	332.19	157.83	607.37	392.85	154.4	549.34	127.35	169.17	578.15	122.29	258.15	484.86	85.925	228.29	501.83	62.832	259.88	483.49	57.01	201.18	648.17	52.561	127.13	697.89	61.513	229.35	739.2	79.121	165.09	352.66	1491.6	347.93	300.27	1224.8	333.15
